<svg xmlns="http://www.w3.org/2000/svg" version="1.1" xmlns:xlink="http://www.w3.org/1999/xlink"
    xmlns:svgjs="http://svgjs.dev/svgjs" width="2000" height="1247" viewBox="0 0 2000 1247">
    <g transform="matrix(1,0,0,1,-1.2121212121212466,0.504858299595071)">
        <svg viewBox="0 0 396 247" data-background-color="#ffffff"
            preserveAspectRatio="xMidYMid meet" height="1247" width="2000"
            xmlns="http://www.w3.org/2000/svg" xmlns:xlink="http://www.w3.org/1999/xlink">
            <g id="tight-bounds" transform="matrix(1,0,0,1,0.2400000000000091,-0.09999999999999432)">
                <svg viewBox="0 0 395.52 247.2" height="247.2" width="395.52">
                    <g>
                        <svg></svg>
                    </g>
                    <g>
                        <svg viewBox="0 0 395.52 247.2" height="247.2" width="395.52">
                            <mask id="458dcf01-68ff-40f8-8fab-376b4dd8faca">
                                <rect width="395.52" height="247.2" fill="white"></rect>
                                <g transform="matrix(1,0,0,1,0,58.520608802961746)" id="clone">
                                    <svg viewBox="0 0 395.52 130.1587823940765"
                                        height="130.1587823940765" width="395.52">
                                        <g>
                                            <svg viewBox="0 0 395.52 130.1587823940765"
                                                height="130.1587823940765" width="395.52">
                                                <g>
                                                    <svg viewBox="0 0 395.52 130.1587823940765"
                                                        height="130.1587823940765" width="395.52">
                                                        <g>
                                                            <svg
                                                                viewBox="0 0 395.52 130.1587823940765"
                                                                height="130.1587823940765"
                                                                width="395.52">
                                                                <g id="SvgjsG1398">
                                                                    <svg
                                                                        viewBox="0 0 395.52 130.1587823940765"
                                                                        height="130.1587823940765"
                                                                        width="395.52"
                                                                        id="SvgjsSvg1397">
                                                                        <g>
                                                                            <svg
                                                                                viewBox="0 0 395.52 130.1587823940765"
                                                                                height="130.1587823940765"
                                                                                width="395.52">
                                                                                <g
                                                                                    transform="matrix(1,0,0,1,0,0)">
                                                                                    <svg
                                                                                        width="395.52"
                                                                                        viewBox="-0.3999999999999999 -38 122.54 41"
                                                                                        height="130.1587823940765"
                                                                                        data-palette-color="#ff0033">
                                                                                        <path
                                                                                            d="M5.75-32.25L2.6-32.25 2.6-35 13-35Q19.15-35 22.13-32.9 25.1-30.8 25.1-24.98 25.1-19.15 22.03-16.38 18.95-13.6 13-13.6L13-13.6 9.15-13.6 9.15-2.75 12.7-2.75 12.7 0 2.6 0 2.6-2.75 5.75-2.75 5.75-32.25ZM12.75-32.25L12.75-32.25 9.15-32.25 9.15-16.35 12.75-16.35Q17.25-16.35 19.48-18.32 21.7-20.3 21.7-24.78 21.7-29.25 19.5-30.75 17.3-32.25 12.75-32.25ZM31.3-32.25L28.25-32.25 28.25-35 49.5-35 49.45-34.7 50.1-27.8 47.6-27.4 47-32.25 34.7-32.25 34.7-18.85 45.6-18.85 45.6-22 48.35-22 48.35-13.4 45.6-13.4 45.6-16.1 34.7-16.1 34.7-2.75 48.35-2.75 49.1-9 51.55-8.75 50.8 0 28.25 0 28.25-2.75 31.3-2.75 31.3-32.25ZM83.65 0L72.84 0 72.84-2.75 76.3-2.75 68.2-16.1 60.55-2.75 64.09-2.75 64.09 0 53.8 0 53.8-2.75 57.15-2.75 66.65-18.65 58.05-32.25 54.8-32.25 54.8-35 64.9-35 64.9-32.25 61.9-32.25 68.84-20.7 75.45-32.25 72.45-32.25 72.45-35 82.25-35 82.25-32.25 78.9-32.25 70.4-18.15 80.09-2.75 83.65-2.75 83.65 0ZM119.14 0L109.04 0 109.04-2.75 112.09-2.75 109.79-9.25 94.39-9.25 92.14-2.75 95.74-2.75 95.74 0 85.64 0 85.64-2.75 88.94-2.75 100.59-35 103.64-35 115.69-2.75 119.14-2.75 119.14 0ZM108.89-11.75L101.94-31.2 95.24-11.75 108.89-11.75Z"
                                                                                            opacity="1"
                                                                                            transform="matrix(1,0,0,1,0,0)"
                                                                                            fill="black"
                                                                                            class="wordmark-text-0"
                                                                                            id="SvgjsPath1396"
                                                                                            stroke-width="5"
                                                                                            stroke="black"
                                                                                            stroke-linejoin="round"></path>
                                                                                    </svg>
                                                                                </g>
                                                                            </svg>
                                                                        </g>
                                                                    </svg>
                                                                </g>
                                                            </svg>
                                                        </g>
                                                    </svg>
                                                </g>
                                            </svg>
                                        </g>
                                    </svg>
                                </g>
                            </mask>
                            <g mask="url(#458dcf01-68ff-40f8-8fab-376b4dd8faca)">
                                <g>
                                    <path
                                        d="M140.551 19.423h-22.248v-19.423h73.454c28.958 0 50.452 4.944 64.483 14.832 13.984 9.888 20.977 28.534 20.977 55.938 0 27.451-7.228 47.698-21.683 60.74-14.502 13.09-35.762 19.635-63.777 19.635v0h-27.192v76.632h25.073v19.423h-71.335v-19.423h22.248zM189.991 19.423v0h-25.426v112.299h25.426c21.189 0 37.033-4.638 47.533-13.914 10.453-9.323 15.68-24.532 15.679-45.626 0-21.047-5.179-35.102-15.538-42.165-10.359-7.063-26.25-10.594-47.674-10.594z"
                                        fill="#ff0033" fill-rule="nonzero" stroke="none"
                                        stroke-width="1" stroke-linecap="butt"
                                        stroke-linejoin="miter" stroke-miterlimit="10"
                                        stroke-dasharray="" stroke-dashoffset="0" font-family="none"
                                        font-weight="none" font-size="none" text-anchor="none"
                                        style="mix-blend-mode: normal"
                                        data-fill-palette-color="tertiary"></path>
                                </g>
                            </g>
                            <g transform="matrix(1,0,0,1,0,58.520608802961746)">
                                <svg viewBox="0 0 395.52 130.1587823940765"
                                    height="130.1587823940765" width="395.52">
                                    <g>
                                        <svg viewBox="0 0 395.52 130.1587823940765"
                                            height="130.1587823940765" width="395.52">
                                            <g>
                                                <svg viewBox="0 0 395.52 130.1587823940765"
                                                    height="130.1587823940765" width="395.52">
                                                    <g>
                                                        <svg viewBox="0 0 395.52 130.1587823940765"
                                                            height="130.1587823940765"
                                                            width="395.52">
                                                            <g id="textblocktransform">
                                                                <svg
                                                                    viewBox="0 0 395.52 130.1587823940765"
                                                                    height="130.1587823940765"
                                                                    width="395.52" id="textblock">
                                                                    <g>
                                                                        <svg
                                                                            viewBox="0 0 395.52 130.1587823940765"
                                                                            height="130.1587823940765"
                                                                            width="395.52">
                                                                            <g
                                                                                transform="matrix(1,0,0,1,0,0)">
                                                                                <svg width="395.52"
                                                                                    viewBox="-0.3999999999999999 -38 122.54 41"
                                                                                    height="130.1587823940765"
                                                                                    data-palette-color="#ff0033">
                                                                                    <path
                                                                                        d="M5.75-32.25L2.6-32.25 2.6-35 13-35Q19.15-35 22.13-32.9 25.1-30.8 25.1-24.98 25.1-19.15 22.03-16.38 18.95-13.6 13-13.6L13-13.6 9.15-13.6 9.15-2.75 12.7-2.75 12.7 0 2.6 0 2.6-2.75 5.75-2.75 5.75-32.25ZM12.75-32.25L12.75-32.25 9.15-32.25 9.15-16.35 12.75-16.35Q17.25-16.35 19.48-18.32 21.7-20.3 21.7-24.78 21.7-29.25 19.5-30.75 17.3-32.25 12.75-32.25ZM31.3-32.25L28.25-32.25 28.25-35 49.5-35 49.45-34.7 50.1-27.8 47.6-27.4 47-32.25 34.7-32.25 34.7-18.85 45.6-18.85 45.6-22 48.35-22 48.35-13.4 45.6-13.4 45.6-16.1 34.7-16.1 34.7-2.75 48.35-2.75 49.1-9 51.55-8.75 50.8 0 28.25 0 28.25-2.75 31.3-2.75 31.3-32.25ZM83.65 0L72.84 0 72.84-2.75 76.3-2.75 68.2-16.1 60.55-2.75 64.09-2.75 64.09 0 53.8 0 53.8-2.75 57.15-2.75 66.65-18.65 58.05-32.25 54.8-32.25 54.8-35 64.9-35 64.9-32.25 61.9-32.25 68.84-20.7 75.45-32.25 72.45-32.25 72.45-35 82.25-35 82.25-32.25 78.9-32.25 70.4-18.15 80.09-2.75 83.65-2.75 83.65 0ZM119.14 0L109.04 0 109.04-2.75 112.09-2.75 109.79-9.25 94.39-9.25 92.14-2.75 95.74-2.75 95.74 0 85.64 0 85.64-2.75 88.94-2.75 100.59-35 103.64-35 115.69-2.75 119.14-2.75 119.14 0ZM108.89-11.75L101.94-31.2 95.24-11.75 108.89-11.75Z"
                                                                                        opacity="1"
                                                                                        transform="matrix(1,0,0,1,0,0)"
                                                                                        fill="#ff0033"
                                                                                        class="wordmark-text-0"
                                                                                        data-fill-palette-color="primary"
                                                                                        id="text-0"></path>
                                                                                </svg>
                                                                            </g>
                                                                        </svg>
                                                                    </g>
                                                                </svg>
                                                            </g>
                                                        </svg>
                                                    </g>
                                                </svg>
                                            </g>
                                        </svg>
                                    </g>
                                </svg>
                            </g>
                        </svg>
                    </g>
                    <defs></defs>
                </svg>
                <rect width="395.52" height="247.2" fill="none" stroke="none" visibility="hidden"></rect>
            </g>
        </svg>
    </g>
</svg>